<svg width="362" height="413" viewBox="0 0 362 413" fill="none" xmlns="http://www.w3.org/2000/svg">
<path d="M359 0C359 31.0303 340.088 60.7897 306.426 82.7315C272.763 104.673 227.106 117 179.5 117C131.894 117 86.2371 104.673 52.5743 82.7315C18.9116 60.7897 7.18836e-06 31.0303 0 1.48156e-05L179.5 0H359Z" fill="#001F3D" fill-opacity="0.8"/>
<path d="M359 0C359 31.0303 340.088 60.7897 306.426 82.7315C272.763 104.673 227.106 117 179.5 117C131.894 117 86.2371 104.673 52.5743 82.7315C18.9116 60.7897 7.18836e-06 31.0303 0 1.48156e-05L179.5 0H359Z" fill="#001F3D" fill-opacity="0.8"/>
<path d="M7.11479e-05 0.0321786C21.7607 0.0279496 43.3092 4.8473 63.4152 14.2151C83.5211 23.5829 101.791 37.3156 117.181 54.6293C132.572 71.9429 144.781 92.4984 153.113 115.122C161.444 137.746 165.735 161.994 165.74 186.484C165.744 210.973 161.463 235.224 153.139 257.851C144.816 280.478 132.614 301.038 117.23 318.357C101.846 335.677 83.5818 349.417 63.4794 358.792C43.3769 368.168 21.8302 372.996 0.0695801 373L0.0348336 186.516L7.11479e-05 0.0321786Z" fill="white" fill-opacity="0.8"/>
<path d="M7.11479e-05 0.0321786C21.7607 0.0279496 43.3092 4.8473 63.4152 14.2151C83.5211 23.5829 101.791 37.3156 117.181 54.6293C132.572 71.9429 144.781 92.4984 153.113 115.122C161.444 137.746 165.735 161.994 165.74 186.484C165.744 210.973 161.463 235.224 153.139 257.851C144.816 280.478 132.614 301.038 117.23 318.357C101.846 335.677 83.5818 349.417 63.4794 358.792C43.3769 368.168 21.8302 372.996 0.0695801 373L0.0348336 186.516L7.11479e-05 0.0321786Z" fill="white" fill-opacity="0.8"/>
</svg>
