<svg width="15" height="15" viewBox="0 0 15 15" fill="none" xmlns="http://www.w3.org/2000/svg">
<path fill-rule="evenodd" clip-rule="evenodd" d="M4.68864 3.75H7.02979L7.03125 3.75H9.14366C10.3072 3.75168 11.2499 4.69543 11.2499 5.85937V11.7187C12.2855 11.7187 13.1249 10.8793 13.1249 9.84375V3.81763C13.1249 2.87676 12.422 2.06037 11.4599 1.98053C11.32 1.96892 11.1799 1.95825 11.0395 1.94854C10.7271 1.3478 10.099 0.9375 9.375 0.9375H8.4375C7.71355 0.9375 7.08543 1.34779 6.77298 1.94853C6.63254 1.95825 6.49237 1.96891 6.35246 1.98053C5.41353 2.05846 4.72138 2.83793 4.68864 3.75ZM8.4375 1.875C7.91973 1.875 7.5 2.29473 7.5 2.8125H10.3125C10.3125 2.29473 9.89277 1.875 9.375 1.875H8.4375Z" fill="black"/>
<path fill-rule="evenodd" clip-rule="evenodd" d="M1.875 5.85938C1.875 5.21217 2.39967 4.6875 3.04688 4.6875H9.14062C9.78783 4.6875 10.3125 5.21217 10.3125 5.85938V12.8906C10.3125 13.5378 9.78783 14.0625 9.14062 14.0625H3.04688C2.39967 14.0625 1.875 13.5378 1.875 12.8906V5.85938ZM3.75 7.5C3.75 7.24112 3.95987 7.03125 4.21875 7.03125H4.22344C4.48232 7.03125 4.69219 7.24112 4.69219 7.5V7.50469C4.69219 7.76357 4.48232 7.97344 4.22344 7.97344H4.21875C3.95987 7.97344 3.75 7.76357 3.75 7.50469V7.5ZM5.15625 7.5C5.15625 7.24112 5.36612 7.03125 5.625 7.03125H7.96875C8.22763 7.03125 8.4375 7.24112 8.4375 7.5C8.4375 7.75888 8.22763 7.96875 7.96875 7.96875H5.625C5.36612 7.96875 5.15625 7.75888 5.15625 7.5ZM3.75 9.375C3.75 9.11612 3.95987 8.90625 4.21875 8.90625H4.22344C4.48232 8.90625 4.69219 9.11612 4.69219 9.375V9.37969C4.69219 9.63857 4.48232 9.84844 4.22344 9.84844H4.21875C3.95987 9.84844 3.75 9.63857 3.75 9.37969V9.375ZM5.15625 9.375C5.15625 9.11612 5.36612 8.90625 5.625 8.90625H7.96875C8.22763 8.90625 8.4375 9.11612 8.4375 9.375C8.4375 9.63388 8.22763 9.84375 7.96875 9.84375H5.625C5.36612 9.84375 5.15625 9.63388 5.15625 9.375ZM3.75 11.25C3.75 10.9911 3.95987 10.7812 4.21875 10.7812H4.22344C4.48232 10.7812 4.69219 10.9911 4.69219 11.25V11.2547C4.69219 11.5136 4.48232 11.7234 4.22344 11.7234H4.21875C3.95987 11.7234 3.75 11.5136 3.75 11.2547V11.25ZM5.15625 11.25C5.15625 10.9911 5.36612 10.7812 5.625 10.7812H7.96875C8.22763 10.7812 8.4375 10.9911 8.4375 11.25C8.4375 11.5089 8.22763 11.7188 7.96875 11.7188H5.625C5.36612 11.7188 5.15625 11.5089 5.15625 11.25Z" fill="black"/>
</svg>
