<svg width="346" height="324" viewBox="0 0 346 324" fill="none" xmlns="http://www.w3.org/2000/svg">
<path d="M0.132694 0.0302734C21.0303 0.0262959 41.7241 4.21181 61.0325 12.3479C80.3409 20.4839 97.8859 32.4112 112.666 47.4487C127.445 62.4861 139.17 80.3393 147.171 99.9888C155.172 119.638 159.292 140.699 159.296 161.97C159.3 183.24 155.188 204.302 147.195 223.955C139.201 243.608 127.483 261.465 112.709 276.508C97.9352 291.551 80.3948 303.485 61.0895 311.629C41.7841 319.772 21.0919 323.966 0.194336 323.97L0.163523 162L0.132694 0.0302734Z" fill="white" fill-opacity="0.8"/>
<path d="M346 0.5C346 32.4586 330.513 63.1082 302.945 85.7064C275.377 108.304 237.987 121 199 121C160.013 121 122.623 108.305 95.0553 85.7064C67.4875 63.1082 52 32.4586 52 0.500015L199 0.5H346Z" fill="#001F3D" fill-opacity="0.8"/>
</svg>
