<?xml version="1.0" encoding="UTF-8"?>
<svg version="1.1" xmlns="http://www.w3.org/2000/svg" width="269" height="106">
<path d="M0 0 C0.62519531 0.33257813 1.25039062 0.66515625 1.89453125 1.0078125 C13.88386104 7.16530783 26.93622918 6.24113242 40.01953125 6.0703125 C42.03644833 6.05523669 44.05337632 6.04155341 46.0703125 6.02929688 C50.97032553 5.99652491 55.86980561 5.94490286 60.76953125 5.8828125 C60.76953125 6.5428125 60.76953125 7.2028125 60.76953125 7.8828125 C60.10953125 7.8828125 59.44953125 7.8828125 58.76953125 7.8828125 C58.43953125 8.8728125 58.10953125 9.8628125 57.76953125 10.8828125 C57.10953125 10.8828125 56.44953125 10.8828125 55.76953125 10.8828125 C55.76953125 11.5428125 55.76953125 12.2028125 55.76953125 12.8828125 C55.10953125 12.8828125 54.44953125 12.8828125 53.76953125 12.8828125 C53.27453125 14.3678125 53.27453125 14.3678125 52.76953125 15.8828125 C50.64048851 17.70685193 48.53458201 19.36836888 46.26953125 21.0078125 C45.6038916 21.48992188 44.93825195 21.97203125 44.25244141 22.46875 C26.27970795 35.17210031 8.95536596 40.96471457 -13.23046875 38.8828125 C-17.49506422 37.98961181 -21.28939839 36.72461925 -25.23046875 34.8828125 C-25.90722656 34.57472656 -26.58398438 34.26664063 -27.28125 33.94921875 C-28.62042352 33.30579975 -29.93171292 32.60434352 -31.23046875 31.8828125 C-31.23046875 31.2228125 -31.23046875 30.5628125 -31.23046875 29.8828125 C-31.86984375 29.6146875 -32.50921875 29.3465625 -33.16796875 29.0703125 C-35.23046875 27.8828125 -35.23046875 27.8828125 -36.23046875 24.8828125 C-36.89046875 24.8828125 -37.55046875 24.8828125 -38.23046875 24.8828125 C-42.03930324 18.58995551 -43.06485683 11.75851603 -41.54296875 4.5703125 C-39.9431936 0.07570613 -38.39203762 -3.0325705 -34.02734375 -5.22265625 C-22.41821849 -8.93563067 -10.4776243 -5.24798695 0 0 Z M-34.23046875 -1.1171875 C-34.23046875 -0.4571875 -34.23046875 0.2028125 -34.23046875 0.8828125 C-34.89046875 0.8828125 -35.55046875 0.8828125 -36.23046875 0.8828125 C-39.01308425 7.22717584 -39.82499726 11.07058275 -37.578125 17.8515625 C-34.32822607 25.63933873 -27.72871428 30.01915725 -20.16796875 33.2578125 C-15.84112264 34.8178772 -11.81626297 35.67197139 -7.23046875 35.8828125 C-6.49570313 35.934375 -5.7609375 35.9859375 -5.00390625 36.0390625 C11.56036757 36.68652597 26.39465653 30.04397277 39.76953125 20.8828125 C40.50945312 20.39167969 41.249375 19.90054688 42.01171875 19.39453125 C43.64116835 18.28532761 45.21359835 17.09298253 46.76953125 15.8828125 C46.76953125 15.2228125 46.76953125 14.5628125 46.76953125 13.8828125 C47.40890625 13.5940625 48.04828125 13.3053125 48.70703125 13.0078125 C50.92159204 12.05457799 50.92159204 12.05457799 51.76953125 9.8828125 C50.49275513 9.89852295 50.49275513 9.89852295 49.19018555 9.91455078 C45.97893304 9.94899365 42.76777586 9.9738848 39.55639648 9.99267578 C38.17648181 10.00262516 36.7965876 10.01618955 35.41674805 10.03369141 C20.43047721 10.2187743 6.94907689 8.22965932 -6.48046875 1.2578125 C-15.37231979 -3.3512012 -24.74783342 -5.00749943 -34.23046875 -1.1171875 Z " fill="#1A7F8D" transform="translate(169.23046875,21.1171875)"/>
<path d="M0 0 C2.97 0 5.94 0 9 0 C9.55429687 1.26457031 10.10859375 2.52914062 10.6796875 3.83203125 C11.41131049 5.49225266 12.14308946 7.15240534 12.875 8.8125 C13.42220703 10.06256836 13.42220703 10.06256836 13.98046875 11.33789062 C14.33496094 12.14033203 14.68945312 12.94277344 15.0546875 13.76953125 C15.37937012 14.50792236 15.70405273 15.24631348 16.03857422 16.00708008 C17.05653856 18.23438861 17.05653856 18.23438861 19 21 C20.10675619 18.8137775 21.21044378 16.62609052 22.3125 14.4375 C22.62123047 13.82841797 22.92996094 13.21933594 23.24804688 12.59179688 C25.3279067 8.45397049 27.2128583 4.27264338 29 0 C32.3 0 35.6 0 39 0 C39 0.99 39 1.98 39 3 C37.35 3.33 35.7 3.66 34 4 C34.495 15.88 34.495 15.88 35 28 C37.31 28.33 39.62 28.66 42 29 C42 24.05 42 19.1 42 14 C41.34 14 40.68 14 40 14 C40.33 13.01 40.66 12.02 41 11 C42.98 10.67 44.96 10.34 47 10 C47 16.27 47 22.54 47 29 C48.32 29 49.64 29 51 29 C51 29.99 51 30.98 51 32 C42.42 32 33.84 32 25 32 C25 31.01 25 30.02 25 29 C25.99 28.67 26.98 28.34 28 28 C28 22.72 28 17.44 28 12 C25.03 18.6 22.06 25.2 19 32 C17.68 31.67 16.36 31.34 15 31 C13.73705437 28.49481277 12.74505063 26.1857528 11.8125 23.5625 C11.2984422 22.18870285 10.78413051 20.81500067 10.26953125 19.44140625 C9.85058594 18.30574219 9.43164062 17.17007813 9 16 C8.67 15.34 8.34 14.68 8 14 C6.79431947 18.67201205 6.90617574 23.21496292 7 28 C8.32 28.33 9.64 28.66 11 29 C11 29.99 11 30.98 11 32 C6.71 32 2.42 32 -2 32 C-1.505 30.515 -1.505 30.515 -1 29 C-0.01 29 0.98 29 2 29 C2.03758423 28.13048706 2.03758423 28.13048706 2.07592773 27.2434082 C2.19246234 24.59957893 2.31492682 21.95605591 2.4375 19.3125 C2.47681641 18.40048828 2.51613281 17.48847656 2.55664062 16.54882812 C2.59853516 15.66259766 2.64042969 14.77636719 2.68359375 13.86328125 C2.72025146 13.05157471 2.75690918 12.23986816 2.79467773 11.40356445 C3.01037431 8.87855515 3.45899452 6.47399303 4 4 C2.68 3.67 1.36 3.34 0 3 C0 2.01 0 1.02 0 0 Z " fill="#1A818E" transform="translate(21,56)"/>
<path d="M0 0 C0.99 0 1.98 0 3 0 C3 2.31 3 4.62 3 7 C4.65 7 6.3 7 8 7 C8 8.32 8 9.64 8 11 C6.35 11 4.7 11 3 11 C3.33 15.62 3.66 20.24 4 25 C5.65 25 7.3 25 9 25 C9.99 25.33 10.98 25.66 12 26 C12 21.05 12 16.1 12 11 C11.34 11 10.68 11 10 11 C10.33 10.01 10.66 9.02 11 8 C12.98 7.67 14.96 7.34 17 7 C17.33 7.66 17.66 8.32 18 9 C18.66 8.34 19.32 7.68 20 7 C22.625 6.875 22.625 6.875 25 7 C25.33 8.65 25.66 10.3 26 12 C25.236875 12.12375 24.47375 12.2475 23.6875 12.375 C20.79732864 12.88102792 20.79732864 12.88102792 18 15 C17.41651248 17.6556728 17.41651248 17.6556728 17.3125 20.625 C17.24675781 21.62789062 17.18101562 22.63078125 17.11328125 23.6640625 C17.07589844 24.43492188 17.03851563 25.20578125 17 26 C18.32 26 19.64 26 21 26 C21 26.99 21 27.98 21 29 C20.00097656 28.98839844 19.00195312 28.97679688 17.97265625 28.96484375 C16.68230469 28.95582031 15.39195312 28.94679688 14.0625 28.9375 C12.77472656 28.92589844 11.48695313 28.91429688 10.16015625 28.90234375 C7.13701597 28.63467451 7.13701597 28.63467451 6 30 C3.0625 30.1875 3.0625 30.1875 0 30 C-2 28 -2 28 -2.1953125 24.0859375 C-2.18200376 22.51550649 -2.15813602 20.94513779 -2.125 19.375 C-2.11597656 18.57320312 -2.10695312 17.77140625 -2.09765625 16.9453125 C-2.07406223 14.96341477 -2.03819065 12.98167019 -2 11 C-2.99 11 -3.98 11 -5 11 C-5 9.68 -5 8.36 -5 7 C-4.01 7 -3.02 7 -2 7 C-1.855625 6.21625 -1.71125 5.4325 -1.5625 4.625 C-1 2 -1 2 0 0 Z " fill="#3CBCCE" transform="translate(196,59)"/>
<path d="M0 0 C0.33 6.93 0.66 13.86 1 21 C2.32 19.68 3.64 18.36 5 17 C4.67 15.68 4.34 14.36 4 13 C7.63 13 11.26 13 15 13 C15 13.99 15 14.98 15 16 C13.88625 16.3403125 13.88625 16.3403125 12.75 16.6875 C9.48860409 18.24407532 8.07105025 20.08518854 6 23 C9.35660956 27.21018038 12.2443483 30.34242993 17 33 C17 33.66 17 34.32 17 35 C11.75394171 36.13664596 11.75394171 36.13664596 9 36 C6.5 33.6875 6.5 33.6875 5 31 C5 30.34 5 29.68 5 29 C3.68 28.34 2.36 27.68 1 27 C0.67 28.65 0.34 30.3 0 32 C1.32 32 2.64 32 4 32 C4 32.99 4 33.98 4 35 C0.04 35 -3.92 35 -8 35 C-8 34.01 -8 33.02 -8 32 C-7.01 32 -6.02 32 -5 32 C-5 23.09 -5 14.18 -5 5 C-5.99 4.67 -6.98 4.34 -8 4 C-7.67 3.01 -7.34 2.02 -7 1 C-2.25 0 -2.25 0 0 0 Z " fill="#19818F" transform="translate(93,53)"/>
<path d="M0 0 C0.68900391 0.00064453 1.37800781 0.00128906 2.08789062 0.00195312 C7.17194475 0.04694475 7.17194475 0.04694475 8.3125 1.1875 C8.38429964 2.70678038 8.39642007 4.22917482 8.375 5.75 C8.36597656 6.57628906 8.35695312 7.40257812 8.34765625 8.25390625 C8.33605469 8.89199219 8.32445312 9.53007813 8.3125 10.1875 C7.6525 10.1875 6.9925 10.1875 6.3125 10.1875 C5.755625 8.9809375 5.755625 8.9809375 5.1875 7.75 C3.11175738 4.91315176 2.72460752 4.7250533 -0.5625 4.1875 C-4.43835344 3.90963551 -6.53308829 4.86807963 -9.6875 7.1875 C-10.3475 7.1875 -11.0075 7.1875 -11.6875 7.1875 C-11.76889142 9.58402528 -11.82817009 11.97775436 -11.875 14.375 C-11.90013672 15.04853516 -11.92527344 15.72207031 -11.95117188 16.41601562 C-12.01663172 20.88910485 -11.44579071 23.64207118 -8.6875 27.1875 C-4.75243066 29.48295711 -1.16744538 29.36318413 3.3125 29.1875 C3.7765625 28.259375 3.7765625 28.259375 4.25 27.3125 C4.9375 25.9375 5.625 24.5625 6.3125 23.1875 C7.3025 23.1875 8.2925 23.1875 9.3125 23.1875 C9.058004 24.66956495 8.78338238 26.14818615 8.5 27.625 C8.34917969 28.44871094 8.19835937 29.27242187 8.04296875 30.12109375 C7.80191406 30.80300781 7.56085938 31.48492187 7.3125 32.1875 C1.18191731 34.23102756 -6.1973294 34.24826973 -12.1875 31.6875 C-16.40956927 29.18944235 -18.34198874 25.83332191 -19.6875 21.1875 C-20.60894125 15.62707864 -19.41771942 11.08306586 -16.6875 6.1875 C-11.37037524 1.1430483 -7.23398089 -0.13077606 0 0 Z " fill="#3BBDCE" transform="translate(129.6875,55.8125)"/>
<path d="M0 0 C0 0.66 0 1.32 0 2 C0.99 1.34 1.98 0.68 3 0 C9.08044249 -0.54289665 9.08044249 -0.54289665 11.70703125 1.0078125 C13.76381132 4.1768694 13.31162115 7.54343041 13.1875 11.1875 C13.16719727 12.31188477 13.16719727 12.31188477 13.14648438 13.45898438 C13.11118539 15.30629767 13.05737917 17.15324066 13 19 C13.99 19 14.98 19 16 19 C16 19.99 16 20.98 16 22 C12.37 22 8.74 22 5 22 C5.33 21.01 5.66 20.02 6 19 C6.66 19 7.32 19 8 19 C7.67 14.71 7.34 10.42 7 6 C3.25308553 4.60229416 3.25308553 4.60229416 1 6 C0.53045739 9.04581269 0.53045739 9.04581269 0.375 12.5625 C0.30023438 13.76003906 0.22546875 14.95757812 0.1484375 16.19140625 C0.09945312 17.11824219 0.05046875 18.04507813 0 19 C0.99 19 1.98 19 3 19 C3 19.99 3 20.98 3 22 C-0.63 22 -4.26 22 -8 22 C-8 21.01 -8 20.02 -8 19 C-7.01 19 -6.02 19 -5 19 C-5.11341637 16.68690295 -5.24103807 14.37449815 -5.375 12.0625 C-5.44460937 10.77472656 -5.51421875 9.48695312 -5.5859375 8.16015625 C-5.72257813 7.11730469 -5.85921875 6.07445313 -6 5 C-6.66 4.67 -7.32 4.34 -8 4 C-8 3.34 -8 2.68 -8 2 C-4.91190305 0.23537317 -3.76687864 0 0 0 Z " fill="#3CBCCD" transform="translate(174,66)"/>
<path d="M0 0 C3.28175318 2.52968474 4.69243777 4.07731331 6 8 C6.3711875 13.01103128 6.11788946 15.99128499 3 20 C0.40063719 22.79190821 -1.00859908 23.00110956 -4.875 23.5 C-7.97537989 23.36671264 -9.92625791 22.77100928 -12.4375 20.9375 C-15.52260811 17.40091265 -16 15.65985959 -16 11 C-15.31932334 6.98400771 -14.57169008 4.67563374 -11.9375 1.5625 C-7.89872866 -0.58578263 -4.4806984 -0.95783046 0 0 Z M-8.65625 4.2265625 C-10.76240911 7.00620273 -10.52589198 9.38301371 -10.4375 12.76953125 C-9.75312279 16.2586329 -7.72720359 17.88641722 -5 20 C-2.3094472 18.77992056 -2.3094472 18.77992056 0 17 C0.51896558 12.32930978 0.91336215 8.32280035 -1.8125 4.375 C-4.49287812 2.6901909 -6.01994784 2.27420665 -8.65625 4.2265625 Z " fill="#3CBCCE" transform="translate(238,66)"/>
<path d="M0 0 C3.28175318 2.52968474 4.69243777 4.07731331 6 8 C6.3711875 13.01103128 6.11788946 15.99128499 3 20 C0.40063719 22.79190821 -1.00859908 23.00110956 -4.875 23.5 C-7.97537989 23.36671264 -9.92625791 22.77100928 -12.4375 20.9375 C-15.52260811 17.40091265 -16 15.65985959 -16 11 C-15.31932334 6.98400771 -14.57169008 4.67563374 -11.9375 1.5625 C-7.89872866 -0.58578263 -4.4806984 -0.95783046 0 0 Z M-8.65625 4.2265625 C-10.76240911 7.00620273 -10.52589198 9.38301371 -10.4375 12.76953125 C-9.75312279 16.2586329 -7.72720359 17.88641722 -5 20 C-2.3094472 18.77992056 -2.3094472 18.77992056 0 17 C0.51896558 12.32930978 0.91336215 8.32280035 -1.8125 4.375 C-4.49287812 2.6901909 -6.01994784 2.27420665 -8.65625 4.2265625 Z " fill="#3CBCCE" transform="translate(158,66)"/>
<path d="M0 0 C0 10.56 0 21.12 0 32 C1.32 32 2.64 32 4 32 C4 32.99 4 33.98 4 35 C0.04 35 -3.92 35 -8 35 C-8 34.01 -8 33.02 -8 32 C-7.01 32 -6.02 32 -5 32 C-5 23.09 -5 14.18 -5 5 C-5.99 4.67 -6.98 4.34 -8 4 C-7.67 3.01 -7.34 2.02 -7 1 C-2.25 0 -2.25 0 0 0 Z " fill="#3CBBCC" transform="translate(253,53)"/>
<path d="M0 0 C0 10.56 0 21.12 0 32 C0.99 32 1.98 32 3 32 C3 32.99 3 33.98 3 35 C-0.63 35 -4.26 35 -8 35 C-8 34.01 -8 33.02 -8 32 C-7.01 32 -6.02 32 -5 32 C-5 23.09 -5 14.18 -5 5 C-5.99 5 -6.98 5 -8 5 C-8 3.68 -8 2.36 -8 1 C-2.25 0 -2.25 0 0 0 Z " fill="#1A808E" transform="translate(81,53)"/>
<path d="M0 0 C1.65 0 3.3 0 5 0 C5 1.98 5 3.96 5 6 C3.35 6 1.7 6 0 6 C0 4.02 0 2.04 0 0 Z " fill="#1A8391" transform="translate(63,56)"/>
</svg>
